<svg width="24" height="24" xmlns="http://www.w3.org/2000/svg">

 <g>
  <title>Layer 1</title>
  <path id="svg_1" fill="current" d="m20.2014,18.966l0,-0.7188l0,-0.016l1.0363,0c0.4304,0 0.7811,-0.3513 0.7811,-0.7826l0,-11.13263c0,-0.43125 -0.3507,-0.78264 -0.7811,-0.78264l-9.0232,0c-0.0229,-0.06524 -0.0458,-0.13476 -0.0695,-0.20682c-0.1911,-0.58073 -0.4365,-1.32651 -1.174,-1.32651l-6.01013,0c-0.43044,0 -0.78116,0.35139 -0.78116,0.78264l0,1.05417l-0.71739,0c-0.25507,0 -0.46232,0.20763 -0.46232,0.46319l0,11.1326l0,1.5334c0,0.2555 0.20725,0.4632 0.46232,0.4632l16.27678,0c0.2551,0 0.4623,-0.2077 0.4623,-0.4632zm-9.7086,-11.59586l-0.3986,-1.07014c-0.09565,-0.23958 -0.36666,-0.44722 -0.60579,-0.44722l-4.63913,0l0,-1.05417c0,-0.06389 0.04782,-0.12778 0.12753,-0.12778l5.99419,0c0.3415,0 0.5626,0.75404 0.7031,1.23314c0.0366,0.12477 0.0677,0.23089 0.094,0.3002l9.4855,0c0.0638,0 0.1276,0.04791 0.1276,0.12777l0,11.13266c0,0.0639 -0.0479,0.1278 -0.1276,0.1278l-1.0522,0l0,-9.75907c0,-0.25555 -0.2072,-0.46319 -0.4623,-0.46319l-9.2463,0zm1.2608,9.37156l0,-7.27277l-1.4454,0l-1.80039,1.13987l0,1.3637l1.66549,-1.044l0.0426,0l0,5.8132l1.5377,0z" clip-rule="evenodd" fill-rule="evenodd"/>
  <rect id="svg_2" height="9.01099" width="7.25275" y="9.23901" x="7.38461" fill-opacity="null" stroke-opacity="null" stroke-width="null" stroke="null" fill="current"/>
 </g>
</svg>